<?xml version="1.0" encoding="UTF-8" standalone="no"?> <svg width="64" height="64" viewBox="0 0 64 64" fill="none" xmlns="http://www.w3.org/2000/svg">
<path d="M57.15 13.05L51.36 11.05C51.2096 11.0004 51.0496 10.9872 50.8931 11.0116C50.7367 11.0359 50.5882 11.0971 50.46 11.19C50.3234 11.2775 50.2101 11.397 50.1299 11.5382C50.0498 11.6793 50.0052 11.8378 50 12V22.14C50 22.4052 50.1054 22.6596 50.2929 22.8471C50.4804 23.0346 50.7348 23.14 51 23.14H56.78C57.0452 23.14 57.2996 23.0346 57.4871 22.8471C57.6746 22.6596 57.78 22.4052 57.78 22.14V14C57.7843 13.7963 57.7262 13.5962 57.6136 13.4264C57.501 13.2567 57.3393 13.1253 57.15 13.05V13.05Z" fill="#EF5261"/>
<path d="M57.15 25.37L51.36 23.37C51.2102 23.3194 51.0505 23.305 50.894 23.3281C50.7375 23.3512 50.5888 23.4111 50.4599 23.5028C50.3311 23.5946 50.2259 23.7156 50.1529 23.8559C50.0799 23.9962 50.0412 24.1518 50.04 24.31V34.45C50.04 34.7152 50.1454 34.9696 50.3329 35.1571C50.5205 35.3446 50.7748 35.45 51.04 35.45H56.82C57.0853 35.45 57.3396 35.3446 57.5271 35.1571C57.7147 34.9696 57.82 34.7152 57.82 34.45V26.31C57.8192 26.1033 57.7543 25.9019 57.6344 25.7336C57.5144 25.5652 57.3452 25.4382 57.15 25.37V25.37Z" fill="#F7931E"/>
<path d="M57.15 37.68L51.36 35.68C51.2104 35.629 51.0509 35.6142 50.8944 35.6368C50.738 35.6594 50.5891 35.7188 50.46 35.81C50.3308 35.902 50.2253 36.0235 50.1523 36.1643C50.0792 36.3052 50.0408 36.4614 50.04 36.62V46.77C50.04 47.0352 50.1454 47.2896 50.3329 47.4771C50.5205 47.6647 50.7748 47.77 51.04 47.77H56.82C57.0853 47.77 57.3396 47.6647 57.5271 47.4771C57.7147 47.2896 57.82 47.0352 57.82 46.77V38.62C57.8192 38.4133 57.7543 38.2119 57.6344 38.0436C57.5144 37.8752 57.3452 37.7482 57.15 37.68Z" fill="#64B5F6"/>
<path d="M47.0401 3H11.1801C8.41863 3 6.18005 5.23858 6.18005 8V56C6.18005 58.7614 8.41863 61 11.1801 61H47.0401C49.8015 61 52.0401 58.7614 52.0401 56V8C52.0401 5.23858 49.8015 3 47.0401 3Z" fill="#DBD8DD"/>
<path d="M18.17 31.55C19.5507 33.0923 21.242 34.3252 23.1328 35.1678C25.0236 36.0103 27.0712 36.4434 29.1412 36.4387C31.2113 36.434 33.2569 35.9915 35.1439 35.1404C37.0308 34.2892 38.7164 33.0486 40.09 31.5C40.209 31.3757 40.289 31.2193 40.32 31.05C40.36 30.9027 40.36 30.7473 40.32 30.6C39.8723 28.7407 38.9687 27.0221 37.6908 25.5992C36.4128 24.1764 34.8008 23.0941 33 22.45C34.0593 21.6372 34.8373 20.513 35.2249 19.2354C35.6125 17.9577 35.5901 16.5908 35.1609 15.3265C34.7317 14.0622 33.9173 12.9641 32.8321 12.1864C31.7468 11.4087 30.4452 10.9905 29.11 10.9905C27.7749 10.9905 26.4733 11.4087 25.388 12.1864C24.3027 12.9641 23.4883 14.0622 23.0592 15.3265C22.63 16.5908 22.6076 17.9577 22.9952 19.2354C23.3828 20.513 24.1608 21.6372 25.22 22.45C23.433 23.0845 21.831 24.1518 20.5572 25.5565C19.2833 26.9612 18.3773 28.6597 17.92 30.5C17.8453 30.7137 17.8453 30.9463 17.92 31.16C17.9717 31.3078 18.0573 31.4414 18.17 31.55Z" fill="#2196F3"/>
<path d="M21.5601 41.89C21.2948 41.89 21.0405 41.9954 20.853 42.1829C20.6654 42.3704 20.5601 42.6248 20.5601 42.89C20.5601 43.1552 20.6654 43.4096 20.853 43.5971C21.0405 43.7847 21.2948 43.89 21.5601 43.89H36.6501C36.9153 43.89 37.1696 43.7847 37.3572 43.5971C37.5447 43.4096 37.6501 43.1552 37.6501 42.89C37.6501 42.6248 37.5447 42.3704 37.3572 42.1829C37.1696 41.9954 36.9153 41.89 36.6501 41.89H21.5601Z" fill="#2196F3"/>
<path d="M43.68 49.07H14.54C14.2748 49.07 14.0205 49.1754 13.8329 49.3629C13.6454 49.5504 13.54 49.8048 13.54 50.07C13.54 50.3352 13.6454 50.5896 13.8329 50.7771C14.0205 50.9647 14.2748 51.07 14.54 51.07H43.68C43.9453 51.07 44.1996 50.9647 44.3871 50.7771C44.5747 50.5896 44.68 50.3352 44.68 50.07C44.68 49.8048 44.5747 49.5504 44.3871 49.3629C44.1996 49.1754 43.9453 49.07 43.68 49.07Z" fill="#2196F3"/>
<path d="M56.8201 23.14C57.0853 23.14 57.3396 23.0346 57.5272 22.8471C57.7147 22.6596 57.8201 22.4052 57.8201 22.14V14C57.8213 13.7916 57.7574 13.588 57.6373 13.4176C57.5172 13.2473 57.3468 13.1188 57.1501 13.05L52.0001 11.29V8C52.0001 6.67392 51.4733 5.40215 50.5356 4.46447C49.5979 3.52678 48.3261 3 47.0001 3H11.1801C9.85397 3 8.5822 3.52678 7.64452 4.46447C6.70684 5.40215 6.18005 6.67392 6.18005 8V56C6.18005 57.3261 6.70684 58.5979 7.64452 59.5355C8.5822 60.4732 9.85397 61 11.1801 61H47.0001C48.3261 61 49.5979 60.4732 50.5356 59.5355C51.4733 58.5979 52.0001 57.3261 52.0001 56V47.77H56.7801C57.0453 47.77 57.2996 47.6646 57.4872 47.4771C57.6747 47.2896 57.7801 47.0352 57.7801 46.77V38.62C57.7792 38.4133 57.7144 38.2119 57.5944 38.0436C57.4744 37.8752 57.3052 37.7482 57.1101 37.68L52.0001 35.91V35.45H56.7801C57.0453 35.45 57.2996 35.3446 57.4872 35.1571C57.6747 34.9696 57.7801 34.7152 57.7801 34.45V26.31C57.7792 26.1033 57.7144 25.9019 57.5944 25.7336C57.4744 25.5652 57.3052 25.4382 57.1101 25.37L52.0001 23.6V23.14H56.8201ZM55.8201 14.71V21.14H52.0001V13.4L55.8201 14.71ZM50.0001 56C50.0001 56.7956 49.684 57.5587 49.1214 58.1213C48.5588 58.6839 47.7957 59 47.0001 59H11.1801C10.3844 59 9.62134 58.6839 9.05873 58.1213C8.49612 57.5587 8.18005 56.7956 8.18005 56V8C8.18005 7.20435 8.49612 6.44129 9.05873 5.87868C9.62134 5.31607 10.3844 5 11.1801 5H47.0001C47.7957 5 48.5588 5.31607 49.1214 5.87868C49.684 6.44129 50.0001 7.20435 50.0001 8V56ZM55.7801 39.33V45.77H52.0001V38L55.7801 39.33ZM55.7801 27.02V33.45H52.0001V25.71L55.7801 27.02Z" fill="black"/>
<path d="M18.17 31.55C19.5507 33.0923 21.242 34.3252 23.1328 35.1678C25.0236 36.0103 27.0712 36.4434 29.1412 36.4387C31.2113 36.434 33.2569 35.9915 35.1439 35.1404C37.0308 34.2892 38.7164 33.0486 40.09 31.5C40.1983 31.3798 40.2758 31.2351 40.3159 31.0783C40.3559 30.9216 40.3574 30.7574 40.32 30.6C39.8723 28.7407 38.9687 27.0221 37.6908 25.5992C36.4128 24.1764 34.8008 23.0941 33 22.45C34.0593 21.6372 34.8373 20.513 35.2249 19.2354C35.6125 17.9577 35.5901 16.5908 35.1609 15.3265C34.7317 14.0622 33.9173 12.9641 32.8321 12.1864C31.7468 11.4087 30.4452 10.9905 29.11 10.9905C27.7749 10.9905 26.4733 11.4087 25.388 12.1864C24.3027 12.9641 23.4883 14.0622 23.0592 15.3265C22.63 16.5908 22.6076 17.9577 22.9952 19.2354C23.3828 20.513 24.1608 21.6372 25.22 22.45C23.433 23.0845 21.831 24.1518 20.5572 25.5565C19.2833 26.9612 18.3773 28.6597 17.92 30.5C17.8569 30.6806 17.8469 30.8755 17.8912 31.0616C17.9355 31.2477 18.0323 31.4172 18.17 31.55V31.55ZM24.71 17.39C24.7081 16.5202 24.9639 15.6693 25.4453 14.9449C25.9267 14.2204 26.6121 13.6549 27.4147 13.3198C28.2174 12.9846 29.1013 12.8949 29.955 13.0619C30.8086 13.229 31.5935 13.6452 32.2107 14.2582C32.8278 14.8711 33.2494 15.6533 33.4223 16.5057C33.5951 17.3582 33.5114 18.2428 33.1818 19.0477C32.8521 19.8526 32.2913 20.5417 31.5701 21.0281C30.8489 21.5144 29.9998 21.776 29.13 21.78V21.78C28.5514 21.7826 27.9779 21.6711 27.4424 21.4518C26.9069 21.2325 26.4199 20.9097 26.0094 20.5019C25.5988 20.0941 25.2727 19.6093 25.0497 19.0754C24.8268 18.5414 24.7113 17.9687 24.71 17.39V17.39ZM29.08 23.78H29.14C31.1833 23.7853 33.1707 24.4471 34.8092 25.6679C36.4477 26.8886 37.6504 28.6037 38.24 30.56C37.0572 31.7873 35.639 32.7636 34.0703 33.4304C32.5016 34.0971 30.8146 34.4408 29.11 34.4408C27.4055 34.4408 25.7185 34.0971 24.1498 33.4304C22.581 32.7636 21.1629 31.7873 19.98 30.56C20.5668 28.602 21.7688 26.8852 23.4079 25.6639C25.047 24.4427 27.036 23.7821 29.08 23.78V23.78Z" fill="black"/>
<path d="M21.5601 41.89C21.2948 41.89 21.0405 41.9954 20.853 42.1829C20.6654 42.3704 20.5601 42.6248 20.5601 42.89C20.5601 43.1552 20.6654 43.4096 20.853 43.5971C21.0405 43.7847 21.2948 43.89 21.5601 43.89H36.6501C36.9153 43.89 37.1696 43.7847 37.3572 43.5971C37.5447 43.4096 37.6501 43.1552 37.6501 42.89C37.6501 42.6248 37.5447 42.3704 37.3572 42.1829C37.1696 41.9954 36.9153 41.89 36.6501 41.89H21.5601Z" fill="black"/>
<path d="M43.68 49.07H14.54C14.2748 49.07 14.0205 49.1754 13.8329 49.3629C13.6454 49.5504 13.54 49.8048 13.54 50.07C13.54 50.3352 13.6454 50.5896 13.8329 50.7771C14.0205 50.9647 14.2748 51.07 14.54 51.07H43.68C43.9453 51.07 44.1996 50.9647 44.3871 50.7771C44.5747 50.5896 44.68 50.3352 44.68 50.07C44.68 49.8048 44.5747 49.5504 44.3871 49.3629C44.1996 49.1754 43.9453 49.07 43.68 49.07Z" fill="black"/>
</svg>
